<?xml version="1.0" encoding="iso-8859-1"?>
<!-- Generator: Adobe Illustrator 19.0.0, SVG Export Plug-In . SVG Version: 6.00 Build 0)  -->
<svg version="1.1" id="Layer_1" xmlns="http://www.w3.org/2000/svg" xmlns:xlink="http://www.w3.org/1999/xlink" x="0px" y="0px"
	 viewBox="0 0 496.246 496.246" style="enable-background:new 0 0 496.246 496.246;" xml:space="preserve">
<ellipse style="fill:#76A32F;" cx="248.115" cy="193.67" rx="125.07" ry="65.536"/>
<path style="fill:#E56107;" d="M397.462,403.078c0,37.951-66.875,83.913-149.339,83.913c-82.487,0-149.339-45.962-149.339-83.913
	c0-37.975,66.851-68.726,149.339-68.726C330.587,334.352,397.462,365.103,397.462,403.078z"/>
<path style="fill:#FF8C1A;" d="M151.985,307.964c0,82.983,57.714,150.252-16.896,150.252C60.471,458.216,0,390.947,0,307.964
	c0-82.991,60.471-150.26,135.089-150.26C209.699,157.704,151.985,224.973,151.985,307.964z"/>
<path style="fill:#FF7415;" d="M151.985,307.964c0,82.983,57.714,150.252-16.896,150.252C60.471,458.216,0,390.947,0,307.964"/>
<path style="fill:#E56107;" d="M53.839,307.964c0,71.538,44.969,131.269,105.188,146.44c35.643-15.289-7.042-75.02-7.042-146.44
	s42.685-131.159,7.042-146.424C98.808,176.695,53.839,236.418,53.839,307.964z"/>
<path style="fill:#FF8C1A;" d="M344.261,307.972c0-82.991-57.73-150.268,16.888-150.268s135.097,67.277,135.097,150.268
	c0,82.976-60.479,150.244-135.097,150.244C286.531,458.216,344.261,390.947,344.261,307.972z"/>
<path style="fill:#FF7415;" d="M496.246,307.972c0,82.976-60.479,150.244-135.097,150.244s-16.888-67.269-16.888-150.244"/>
<path style="fill:#E56107;" d="M442.415,307.972c0-71.546-44.985-131.277-105.196-146.432c-35.635,15.265,7.05,75.004,7.05,146.432
	c0,71.42-42.685,131.167-7.05,146.432C397.43,439.233,442.415,379.502,442.415,307.972z"/>
<ellipse style="fill:#FF8C1A;" cx="248.123" cy="310.587" rx="138.524" ry="158.878"/>
<path style="fill:#FF7415;" d="M109.592,310.563c0,87.717,62.015,158.846,138.531,158.846s138.524-71.129,138.524-158.846"/>
<path style="fill:#76A32F;" d="M223.949,144.928c-2.237,0-4.49-0.851-6.199-2.56c-31.366-31.366-31.366-82.408,0-113.782
	c25.773-25.765,67.726-25.781,93.515,0c21.299,21.299,21.299,55.966-0.008,77.28c-17.731,17.723-46.576,17.723-64.307,0
	c-14.848-14.864-14.84-39.054,0.024-53.91c3.419-3.426,8.964-3.426,12.375,0c3.426,3.419,3.426,8.956,0,12.375
	c-8.042,8.042-8.05,21.126-0.016,29.16c10.902,10.91,28.641,10.886,39.55,0c14.478-14.486,14.486-38.053,0.008-52.523
	c-18.96-18.936-49.806-18.936-68.758,0c-24.544,24.537-24.544,64.48,0,89.017c3.411,3.419,3.411,8.956,0,12.375
	C228.423,144.077,226.178,144.928,223.949,144.928z"/>
<g>
</g>
<g>
</g>
<g>
</g>
<g>
</g>
<g>
</g>
<g>
</g>
<g>
</g>
<g>
</g>
<g>
</g>
<g>
</g>
<g>
</g>
<g>
</g>
<g>
</g>
<g>
</g>
<g>
</g>
</svg>
