<?xml version="1.0" encoding="iso-8859-1"?>
<!-- Generator: Adobe Illustrator 19.0.0, SVG Export Plug-In . SVG Version: 6.00 Build 0)  -->
<svg version="1.1" id="Layer_1" xmlns="http://www.w3.org/2000/svg" xmlns:xlink="http://www.w3.org/1999/xlink" x="0px" y="0px"
	 viewBox="0 0 504.118 504.118" style="enable-background:new 0 0 504.118 504.118;" xml:space="preserve">
<path style="fill:#5A20A5;" d="M429.194,86.368c50.152,50.152,15.541,192.481-93.601,301.615S84.137,531.753,33.977,481.585
	c-50.168-50.152,63.905-113.018,173.048-222.169C316.184,150.289,379.042,36.2,429.194,86.368z"/>
<path style="fill:#6731BC;" d="M299.595,352.001c94.767-94.751,133.309-214.481,109.017-277.228
	c-46.97-8.491-106.827,89.907-201.586,184.643C112.274,354.168,13.859,414.04,22.382,461.01
	C85.138,485.287,204.843,446.753,299.595,352.001z"/>
<g>
	<path style="fill:#8354DD;" d="M272.916,231.705c7.31,7.326-7.507,33.965-33.091,59.557
		c-25.584,25.592-52.232,40.401-59.557,33.091c-7.31-7.31,15.644-25.828,41.228-51.413S265.614,224.395,272.916,231.705z"/>
	<ellipse style="fill:#8354DD;" cx="291.686" cy="210.863" rx="7.2" ry="7.956"/>
	<ellipse style="fill:#8354DD;" cx="317.609" cy="182.104" rx="4.324" ry="5.049"/>
</g>
<polygon style="fill:#7DA81D;" points="405.429,60.461 323.367,80.61 373.748,93.567 363.674,148.273 396.78,116.615 
	395.347,164.121 429.903,126.674 441.411,154.046 445.735,126.674 477.409,152.597 444.286,74.86 "/>
<g>
	<polygon style="fill:#68930A;" points="443.577,100.767 455.101,128.123 458.323,107.769 444.286,74.86 405.429,60.461 
		381.917,66.242 387.446,67.66 377.364,122.365 410.47,90.692 409.029,138.198 	"/>
	<path style="fill:#68930A;" d="M406.138,70.535c0,0-9.358-48.23,8.649-65.504c17.983-17.258,93.215,13.154,58.494,41.771
		c0,0-20.338,21.953-26.104-5.049c-5.876-27.538-27.341-15.124-20.157,4.309c7.2,19.448,27.372,31.862,12.249,36.911
		C424.137,87.998,406.138,70.535,406.138,70.535z"/>
</g>
<g>
</g>
<g>
</g>
<g>
</g>
<g>
</g>
<g>
</g>
<g>
</g>
<g>
</g>
<g>
</g>
<g>
</g>
<g>
</g>
<g>
</g>
<g>
</g>
<g>
</g>
<g>
</g>
<g>
</g>
</svg>
