<?xml version="1.0" encoding="iso-8859-1"?>
<!-- Generator: Adobe Illustrator 19.0.0, SVG Export Plug-In . SVG Version: 6.00 Build 0)  -->
<svg version="1.1" id="Layer_1" xmlns="http://www.w3.org/2000/svg" xmlns:xlink="http://www.w3.org/1999/xlink" x="0px" y="0px"
	 viewBox="0 0 504.123 504.123" style="enable-background:new 0 0 504.123 504.123;" xml:space="preserve">
<g>
	<path style="fill:#43A52F;" d="M290.339,468.677h-2.631l-35.635,9.602l-35.635-9.602h-2.631c0,0-13.84,11.453-10.547,21.992
		l11.855-2.82l9.224,16.045l5.27-9.114l8.562,5.994l3.954-7.215l9.027,9.027l0.354,1.528l0.575-0.575l0.575,0.583l0.347-1.52
		l9.027-9.019l3.954,7.247l8.554-5.939l5.278,9.232l9.232-15.817l11.839,2.363C304.179,480.13,290.339,468.677,290.339,468.677z"/>
	<path style="fill:#43A52F;" d="M251.301,183.406c0,0,13.162-66.505-9.886-142.903c0,0,3.293,55.32-1.977,76.39
		c-5.278,21.071,2.631,25.025,4.608,36.218C246.016,164.313,251.301,183.406,251.301,183.406z"/>
	<path style="fill:#43A52F;" d="M256.815,190.322c0,0-25.033-16.471-25.687-76.39C230.474,54.012,215.981,0,215.981,0
		s19.102,39.519,23.056,67.167c3.946,27.664,5.27,75.737,5.27,75.737l9.216,18.44L256.815,190.322z"/>
	<path style="fill:#43A52F;" d="M253.593,196.907c0,0-17.786-46.434,5.923-101.746s57.289-60.251,57.289-60.251
		s-49.396,22.717-51.365,96.799c0,0-3.954,17.786-5.931,32.603C257.532,179.129,253.593,196.907,253.593,196.907z"/>
</g>
<path style="fill:#D84A81;" d="M174.784,480.091c32.098,0,60.44-16.203,77.288-40.834c16.857,24.631,45.158,40.834,77.288,40.834
	c51.68,0,95.453-41.953,93.586-93.586c-3.45-95.925-124.203-98.8-165.234-203.351c-2.064-5.301-3.946-7.436-5.648-7.278
	c-1.717-0.165-3.6,1.977-5.664,7.278C205.386,287.705,84.633,290.588,81.167,386.505C79.316,438.138,123.08,480.091,174.784,480.091
	z"/>
<path style="fill:#C63C74;" d="M252.081,345.726c-62.141,0-118.65-2.032-160.847,0.819c-5.837,11.461-9.476,24.489-10.043,39.967
	c-0.859,24.08,8.255,45.97,23.41,62.566c8.98,2.552,18.464,4.892,28.42,6.955c4.293,0.433,8.625,0.646,12.989,0.646
	c44.071,0,82.928-22.213,106.071-56.029c23.135,33.816,61.968,56.029,106.063,56.029c4.364,0,8.696-0.228,12.981-0.646
	c9.956-2.064,19.44-4.403,28.388-6.94c15.179-16.597,24.316-38.51,23.442-62.582c-0.551-15.478-4.198-28.507-10.035-39.967
	C370.723,343.694,314.222,345.726,252.081,345.726z"/>
<g>
	<path style="fill:#A82D65;" d="M252.081,399.218c-81.117,0-149.118-4.781-167.456,14.769c7.68,26.246,27.427,47.553,52.673,58.368
		c8.594,2.741,17.991,5.167,28.026,7.247c3.119,0.323,6.278,0.488,9.468,0.488c32.098,0,60.44-16.203,77.288-40.834
		c16.857,24.631,45.158,40.834,77.288,40.834c3.182,0,6.349-0.165,9.46-0.488c10.019-2.064,19.409-4.506,28.01-7.231
		c25.23-10.831,44.993-32.138,52.681-58.384C401.167,394.429,333.182,399.218,252.081,399.218z"/>
	<ellipse style="fill:#A82D65;" cx="252.073" cy="451.757" rx="74.571" ry="37.541"/>
</g>
<g>
</g>
<g>
</g>
<g>
</g>
<g>
</g>
<g>
</g>
<g>
</g>
<g>
</g>
<g>
</g>
<g>
</g>
<g>
</g>
<g>
</g>
<g>
</g>
<g>
</g>
<g>
</g>
<g>
</g>
</svg>
