<?xml version="1.0" encoding="iso-8859-1"?>
<!-- Generator: Adobe Illustrator 19.0.0, SVG Export Plug-In . SVG Version: 6.00 Build 0)  -->
<svg version="1.1" id="Layer_1" xmlns="http://www.w3.org/2000/svg" xmlns:xlink="http://www.w3.org/1999/xlink" x="0px" y="0px"
	 viewBox="0 0 504.123 504.123" style="enable-background:new 0 0 504.123 504.123;" xml:space="preserve">
<path style="fill:#FF860D;" d="M331.232,154.963c0,43.725-35.446,349.16-79.171,349.16s-79.171-305.436-79.171-349.16
	s35.446-62.929,79.171-62.929C295.786,92.034,331.232,111.238,331.232,154.963z"/>
<g>
	<path style="fill:#E56107;" d="M296.724,154.963c0,43.725-20,349.16-44.662,349.16s-44.662-305.436-44.662-349.16
		s20-62.929,44.662-62.929S296.724,111.238,296.724,154.963z"/>
	<path style="fill:#E56107;" d="M221.964,152.6c0,2.426-1.969,4.403-4.411,4.403h-18.251c-2.434,0-4.411-1.977-4.411-4.403l0,0
		c0-2.434,1.977-4.403,4.411-4.403h18.251C219.995,148.196,221.964,150.166,221.964,152.6L221.964,152.6z"/>
</g>
<path style="fill:#FF860D;" d="M245.634,181.689c0,2.434-1.961,4.403-4.403,4.403H222.98c-2.442,0-4.411-1.969-4.411-4.403l0,0
	c0-2.426,1.969-4.403,4.411-4.403h18.251C243.673,177.294,245.634,179.271,245.634,181.689L245.634,181.689z"/>
<path style="fill:#E56107;" d="M221.964,216.544c0,2.426-1.969,4.403-4.411,4.403h-18.251c-2.434,0-4.411-1.977-4.411-4.403l0,0
	c0-2.434,1.977-4.403,4.411-4.403h18.251C219.995,212.149,221.964,214.118,221.964,216.544L221.964,216.544z"/>
<path style="fill:#FF860D;" d="M245.634,245.642c0,2.426-1.961,4.395-4.403,4.395H222.98c-2.442,0-4.411-1.969-4.411-4.395l0,0
	c0-2.426,1.969-4.403,4.411-4.403h18.251C243.673,241.239,245.634,243.216,245.634,245.642L245.634,245.642z"/>
<path style="fill:#E56107;" d="M221.964,280.489c0,2.418-1.969,4.403-4.411,4.403h-18.251c-2.434,0-4.411-1.985-4.411-4.403l0,0
	c0-2.434,1.977-4.403,4.411-4.403h18.251C219.995,276.094,221.964,278.063,221.964,280.489L221.964,280.489z"/>
<path style="fill:#FF860D;" d="M245.634,309.587c0,2.418-1.961,4.403-4.403,4.403H222.98c-2.442,0-4.411-1.985-4.411-4.403l0,0
	c0-2.434,1.969-4.403,4.411-4.403h18.251C243.673,305.184,245.634,307.153,245.634,309.587L245.634,309.587z"/>
<path style="fill:#E56107;" d="M230.888,349.326c0,2.135-1.733,3.875-3.875,3.875h-16.077c-2.127,0-3.868-1.741-3.868-3.875l0,0
	c0-2.135,1.749-3.875,3.868-3.875h16.077C229.163,345.442,230.888,347.183,230.888,349.326L230.888,349.326z"/>
<path style="fill:#FF860D;" d="M233.968,374.926c0,2.127-1.733,3.86-3.868,3.86h-16.085c-2.127,0-3.868-1.741-3.868-3.86l0,0
	c0-2.135,1.749-3.875,3.868-3.875h16.085C232.235,371.042,233.968,372.783,233.968,374.926L233.968,374.926z"/>
<path style="fill:#E56107;" d="M232.968,412.058c0,1.725-1.386,3.119-3.111,3.119h-12.918c-1.709,0-3.111-1.402-3.111-3.119l0,0
	c0-1.709,1.402-3.111,3.111-3.111h12.918C231.582,408.954,232.968,410.356,232.968,412.058L232.968,412.058z"/>
<path style="fill:#FF860D;" d="M249.698,432.632c0,1.709-1.386,3.111-3.111,3.111h-12.918c-1.709,0-3.111-1.402-3.111-3.111l0,0
	c0-1.725,1.402-3.111,3.111-3.111h12.918C248.312,429.521,249.698,430.907,249.698,432.632L249.698,432.632z"/>
<path style="fill:#E56107;" d="M282.151,152.6c0,2.426,1.969,4.403,4.419,4.403h18.251c2.434,0,4.411-1.977,4.411-4.403l0,0
	c0-2.434-1.977-4.403-4.411-4.403H286.57C284.121,148.196,282.151,150.166,282.151,152.6L282.151,152.6z"/>
<path style="fill:#FF860D;" d="M258.481,181.689c0,2.434,1.969,4.403,4.411,4.403h18.251c2.434,0,4.411-1.969,4.411-4.403l0,0
	c0-2.426-1.977-4.403-4.411-4.403h-18.251C260.45,177.294,258.481,179.271,258.481,181.689L258.481,181.689z"/>
<path style="fill:#E56107;" d="M282.151,216.544c0,2.426,1.969,4.403,4.419,4.403h18.251c2.434,0,4.411-1.977,4.411-4.403l0,0
	c0-2.434-1.977-4.403-4.411-4.403H286.57C284.121,212.149,282.151,214.118,282.151,216.544L282.151,216.544z"/>
<path style="fill:#FF860D;" d="M258.481,245.642c0,2.426,1.969,4.395,4.411,4.395h18.251c2.434,0,4.411-1.969,4.411-4.395l0,0
	c0-2.426-1.977-4.403-4.411-4.403h-18.251C260.45,241.239,258.481,243.216,258.481,245.642L258.481,245.642z"/>
<path style="fill:#E56107;" d="M282.151,280.489c0,2.418,1.969,4.403,4.419,4.403h18.251c2.434,0,4.411-1.985,4.411-4.403l0,0
	c0-2.434-1.977-4.403-4.411-4.403H286.57C284.121,276.094,282.151,278.063,282.151,280.489L282.151,280.489z"/>
<path style="fill:#FF860D;" d="M258.481,309.587c0,2.418,1.969,4.403,4.411,4.403h18.251c2.434,0,4.411-1.985,4.411-4.403l0,0
	c0-2.434-1.977-4.403-4.411-4.403h-18.251C260.45,305.184,258.481,307.153,258.481,309.587L258.481,309.587z"/>
<path style="fill:#E56107;" d="M273.235,349.326c0,2.135,1.733,3.875,3.868,3.875h16.085c2.127,0,3.868-1.741,3.868-3.875l0,0
	c0-2.135-1.749-3.875-3.868-3.875h-16.085C274.96,345.442,273.235,347.183,273.235,349.326L273.235,349.326z"/>
<path style="fill:#FF860D;" d="M268.635,374.926c0,2.127,1.733,3.86,3.875,3.86h16.077c2.127,0,3.868-1.741,3.868-3.86l0,0
	c0-2.135-1.749-3.875-3.868-3.875H272.51C270.36,371.042,268.635,372.783,268.635,374.926L268.635,374.926z"/>
<path style="fill:#E56107;" d="M271.155,412.058c0,1.725,1.386,3.119,3.111,3.119h12.918c1.709,0,3.104-1.402,3.104-3.119l0,0
	c0-1.709-1.394-3.111-3.104-3.111h-12.918C272.542,408.954,271.155,410.356,271.155,412.058L271.155,412.058z"/>
<path style="fill:#FF860D;" d="M254.417,432.632c0,1.709,1.394,3.111,3.119,3.111h12.918c1.709,0,3.111-1.402,3.111-3.111l0,0
	c0-1.725-1.402-3.111-3.111-3.111h-12.918C255.811,429.521,254.417,430.907,254.417,432.632L254.417,432.632z"/>
<path style="fill:#FFAF10;" d="M319.835,118.603c-13.855-18.18-38.975-26.569-67.773-26.569s-53.918,8.389-67.773,26.569
	c4.001,15.699,32.784,10.862,67.773,10.862C287.035,129.465,315.833,134.302,319.835,118.603z"/>
<path style="fill:#FF860D;" d="M252.062,129.465c15.848,0,30.381,0.985,41.96,0.614c-6.207-26.167-22.638-38.046-41.96-38.046
	c-19.33,0-35.753,11.878-41.96,38.046C221.68,130.45,236.213,129.465,252.062,129.465z"/>
<path style="fill:#68AD27;" d="M214.693,32.855c3.891,5.467,43.827,70.955,38.361,74.854c-5.467,3.899-54.304-55.257-58.21-60.723
	c-3.899-5.474-2.631-13.084,2.851-16.983C203.177,26.096,210.786,27.38,214.693,32.855z"/>
<path style="fill:#5C8729;" d="M206.281,61.07c4.049,3.135,47.474,42.157,44.339,46.19c-3.135,4.049-51.688-28.412-55.721-31.555
	c-4.041-3.143-4.781-8.964-1.631-13.013C196.387,58.652,202.232,57.927,206.281,61.07z"/>
<path style="fill:#7FCC2E;" d="M237.214,25.726c2.158,6.372,21.48,80.597,15.1,82.755c-6.372,2.15-36.013-68.592-38.179-74.965
	c-2.143-6.365,1.268-13.28,7.648-15.439C228.147,15.927,235.071,19.346,237.214,25.726z"/>
<path style="fill:#68AD27;" d="M289.43,32.855c-3.899,5.467-43.835,70.955-38.361,74.854c5.467,3.899,54.303-55.257,58.21-60.723
	c3.899-5.474,2.623-13.084-2.844-16.983C300.946,26.096,293.337,27.38,289.43,32.855z"/>
<path style="fill:#5C8729;" d="M297.842,61.07c-4.049,3.135-47.482,42.157-44.339,46.19c3.135,4.049,51.688-28.412,55.721-31.555
	c4.033-3.143,4.773-8.964,1.631-13.013C307.728,58.652,301.891,57.927,297.842,61.07z"/>
<path style="fill:#7FCC2E;" d="M266.91,25.726c-2.15,6.372-21.48,80.597-15.108,82.755c6.388,2.15,36.021-68.592,38.187-74.965
	c2.135-6.365-1.276-13.28-7.648-15.439C275.976,15.927,269.052,19.346,266.91,25.726z"/>
<path style="fill:#5C8729;" d="M265.255,13.194c0,7.294-5.908,95.752-13.194,95.752s-13.194-88.458-13.194-95.752
	C238.868,5.908,244.775,0,252.062,0S265.255,5.908,265.255,13.194z"/>
<g>
	<circle style="fill:#7FCC2E;" cx="182.201" cy="47.884" r="3.214"/>
	<circle style="fill:#7FCC2E;" cx="313.659" cy="92.042" r="3.214"/>
	<circle style="fill:#7FCC2E;" cx="182.351" cy="59.234" r="1.694"/>
	<circle style="fill:#7FCC2E;" cx="312.95" cy="53.469" r="1.701"/>
	<circle style="fill:#7FCC2E;" cx="204.012" cy="10.831" r="6.089"/>
</g>
<g>
	<circle style="fill:#5C8729;" cx="198.861" cy="91.695" r="3.127"/>
	<circle style="fill:#5C8729;" cx="299.425" cy="16.746" r="4.899"/>
</g>
<g>
</g>
<g>
</g>
<g>
</g>
<g>
</g>
<g>
</g>
<g>
</g>
<g>
</g>
<g>
</g>
<g>
</g>
<g>
</g>
<g>
</g>
<g>
</g>
<g>
</g>
<g>
</g>
<g>
</g>
</svg>
