<?xml version="1.0" encoding="iso-8859-1"?>
<!-- Generator: Adobe Illustrator 19.0.0, SVG Export Plug-In . SVG Version: 6.00 Build 0)  -->
<svg version="1.1" id="Layer_1" xmlns="http://www.w3.org/2000/svg" xmlns:xlink="http://www.w3.org/1999/xlink" x="0px" y="0px"
	 viewBox="0 0 504.132 504.132" style="enable-background:new 0 0 504.132 504.132;" xml:space="preserve">
<path style="fill:#42892E;" d="M385.589,0.68c-7.294-2.371-15.187,1.662-17.495,8.877c-2.355,7.294,1.599,15.124,8.893,17.495
	c26.325,8.602,42.354,34.296,39.873,60.77c-37.045,16.896-70.782,123.006-152.804,205.044
	c-71.822,71.814-162.083,106.598-194.788,139.02c-5.191-1.457-11.059-1.623-17.006-0.197c-15.785,3.805-26.033,17.471-22.875,30.539
	c3.143,13.068,18.487,20.559,34.296,16.746c1.308-0.323,2.521-0.803,3.757-1.245c0.496,0.544,0.898,1.056,1.434,1.599
	c55.414,55.398,185.754,14.879,291.147-90.506c105.37-105.393,145.896-235.741,90.49-291.147c-2.103-2.111-4.151-3.828-6.152-5.364
	C448.967,52.542,425.115,13.575,385.589,0.68z"/>
<path style="fill:#57AF3A;" d="M334.405,365.185C439.798,259.8,480.317,129.452,424.911,74.046c-2.103-2.111-4.143-3.828-6.16-5.364
	c2.497-21.567-3.426-42.858-15.62-59.928c-5.427-3.261-11.264-6.034-17.542-8.074c-7.294-2.371-15.187,1.662-17.495,8.877
	c-0.244,0.764-0.386,1.536-0.488,2.308c6.632,4.86,11.997,11.02,16.006,18.007c22.284,10.476,35.501,33.808,33.256,57.943
	c-37.045,16.896-70.782,123.006-152.804,205.044c-71.822,71.814-162.083,106.598-194.788,139.02
	c-5.191-1.457-11.059-1.623-17.006-0.197c-13.351,3.222-22.646,13.517-23.308,24.521c2.97,0.079,6.026-0.126,9.121-0.866
	c1.308-0.323,2.528-0.803,3.757-1.245c0.496,0.544,0.89,1.056,1.441,1.599C98.68,511.097,229.019,470.57,334.405,365.185z"/>
<path style="fill:#425B36;" d="M372.356,213.767c15.392-23.402,21.709-46.434,37.959-35.722
	c16.258,10.697,16.967,38.345,1.575,61.739c-15.392,23.402-41.062,33.682-57.336,22.985
	C338.312,252.057,356.972,237.153,372.356,213.767z"/>
<path style="fill:#263A1E;" d="M387.692,223.841c15.399-23.379,6.38-56.509,22.63-45.796c16.258,10.697,16.967,38.345,1.575,61.739
	c-15.392,23.402-41.062,33.682-57.336,22.985C338.312,252.057,372.301,247.244,387.692,223.841z"/>
<path style="fill:#425B36;" d="M284.032,322.059c19.873-19.732,30.791-40.968,44.497-27.144
	c13.714,13.824,8.704,41.023-11.169,60.747c-19.889,19.724-47.112,24.505-60.849,10.681
	C242.82,352.511,264.143,341.775,284.032,322.059z"/>
<path style="fill:#263A1E;" d="M296.942,335.072c19.889-19.708,17.881-53.988,31.586-40.164
	c13.714,13.824,8.704,41.023-11.169,60.747c-19.889,19.724-47.112,24.505-60.849,10.681
	C242.82,352.511,277.069,354.803,296.942,335.072z"/>
<path style="fill:#425B36;" d="M177.906,405.444c23.851-14.659,39.329-32.847,49.53-16.25c10.185,16.589-0.898,41.929-24.773,56.596
	c-23.859,14.643-51.46,13.084-61.661-3.505C130.834,425.672,154.039,420.095,177.906,405.444z"/>
<path style="fill:#263A1E;" d="M187.516,421.072c23.859-14.643,29.72-48.475,39.92-31.886c10.185,16.589-0.898,41.929-24.773,56.596
	c-23.859,14.643-51.46,13.084-61.661-3.505C130.834,425.672,163.641,435.731,187.516,421.072z"/>
<g>
</g>
<g>
</g>
<g>
</g>
<g>
</g>
<g>
</g>
<g>
</g>
<g>
</g>
<g>
</g>
<g>
</g>
<g>
</g>
<g>
</g>
<g>
</g>
<g>
</g>
<g>
</g>
<g>
</g>
</svg>
