<?xml version="1.0" encoding="iso-8859-1"?>
<!-- Generator: Adobe Illustrator 19.0.0, SVG Export Plug-In . SVG Version: 6.00 Build 0)  -->
<svg version="1.1" id="Layer_1" xmlns="http://www.w3.org/2000/svg" xmlns:xlink="http://www.w3.org/1999/xlink" x="0px" y="0px"
	 viewBox="0 0 504.123 504.123" style="enable-background:new 0 0 504.123 504.123;" xml:space="preserve">
<circle style="fill:#FFB92C;" cx="183.313" cy="254.535" r="44.449"/>
<path style="fill:#FF912E;" d="M214.75,223.106c17.361,17.361,17.361,45.505,0.008,62.874
	c-17.361,17.353-45.505,17.353-62.874-0.016c-17.361-17.353,18.156-9.988,35.525-27.357
	C204.762,241.254,197.397,205.745,214.75,223.106z"/>
<g>
	<path style="fill:#FFE966;" d="M176.949,220.633c3.663,3.663-5.679,6.656-13.288,14.257c-7.609,7.609-10.61,16.943-14.265,13.288
		c-3.663-3.679-0.465-12.808,7.129-20.409C164.141,220.16,173.27,216.962,176.949,220.633z"/>
	<circle style="fill:#FFE966;" cx="187.393" cy="218.27" r="2.741"/>
	<circle style="fill:#FFE966;" cx="149.364" cy="255.898" r="1.095"/>
</g>
<circle style="fill:#FFB92C;" cx="320.829" cy="254.535" r="44.457"/>
<path style="fill:#FF912E;" d="M289.368,223.106c-17.361,17.361-17.361,45.505,0,62.874c17.361,17.353,45.505,17.353,62.874-0.016
	c17.361-17.353-18.156-9.988-35.525-27.357C299.372,241.254,306.729,205.745,289.368,223.106z"/>
<g>
	<path style="fill:#FFE966;" d="M327.185,220.633c-3.663,3.663,5.671,6.656,13.28,14.257c7.609,7.609,10.618,16.943,14.265,13.288
		c3.663-3.679,0.473-12.808-7.129-20.409C339.985,220.16,330.864,216.962,327.185,220.633z"/>
	<circle style="fill:#FFE966;" cx="316.733" cy="218.27" r="2.733"/>
	<circle style="fill:#FFE966;" cx="354.754" cy="255.898" r="1.095"/>
</g>
<circle style="fill:#FFB92C;" cx="252.063" cy="223.264" r="44.457"/>
<path style="fill:#FF912E;" d="M296.52,223.264c0,24.552-19.897,44.449-44.457,44.449c-24.56,0-44.457-19.889-44.457-44.449
	s19.897,5.766,44.457,5.766C276.623,229.029,296.52,198.703,296.52,223.264z"/>
<g>
	<path style="fill:#FFE966;" d="M271.543,194.765c0,5.175-8.72,0.717-19.48,0.717c-10.76,0-19.472,4.458-19.472-0.717
		c0-5.183,8.712-9.374,19.472-9.374C262.823,185.391,271.543,189.574,271.543,194.765z"/>
	<circle style="fill:#FFE966;" cx="280.577" cy="200.491" r="2.741"/>
	<circle style="fill:#FFE966;" cx="227.101" cy="200.208" r="1.103"/>
</g>
<circle style="fill:#FFB92C;" cx="189.914" cy="311.454" r="40.196"/>
<path style="fill:#FF912E;" d="M218.342,283.065c15.691,15.707,15.691,41.157,0,56.863c-15.707,15.675-41.149,15.675-56.848-0.016
	c-15.707-15.691,16.408-9.027,32.114-24.726C209.291,299.481,202.635,267.351,218.342,283.065z"/>
<g>
	<path style="fill:#FFE966;" d="M184.14,280.812c3.308,3.308-5.12,6.049-11.997,12.91c-6.861,6.877-9.602,15.305-12.895,11.997
		c-3.308-3.308-0.425-11.571,6.451-18.432C172.569,280.418,180.816,277.504,184.14,280.812z"/>
	<path style="fill:#FFE966;" d="M195.341,276.921c0.992,0.969,0.992,2.536,0.024,3.505c-0.985,0.969-2.56,0.969-3.529,0
		c-0.953-0.953-0.953-2.536,0-3.505C192.805,275.968,194.38,275.968,195.341,276.921z"/>
	<path style="fill:#FFE966;" d="M159.919,312.013c0.378,0.386,0.378,1.016,0,1.418c-0.394,0.37-1.04,0.37-1.402,0
		c-0.386-0.402-0.386-1.032,0-1.418C158.879,311.627,159.525,311.627,159.919,312.013z"/>
</g>
<circle style="fill:#FFB92C;" cx="314.212" cy="311.454" r="40.196"/>
<path style="fill:#FF912E;" d="M285.792,283.065c-15.699,15.707-15.699,41.157,0,56.863c15.699,15.675,41.149,15.675,56.84-0.016
	c15.707-15.691-16.4-9.027-32.106-24.726C294.835,299.481,301.491,267.351,285.792,283.065z"/>
<g>
	<path style="fill:#FFE966;" d="M319.986,280.812c-3.308,3.308,5.128,6.049,11.997,12.91c6.869,6.877,9.594,15.305,12.902,11.997
		c3.316-3.308,0.41-11.571-6.459-18.432C331.565,280.418,323.302,277.504,319.986,280.812z"/>
	<circle style="fill:#FFE966;" cx="310.533" cy="278.678" r="2.481"/>
	<circle style="fill:#FFE966;" cx="344.932" cy="312.714" r="1"/>
</g>
<path style="fill:#FFB92C;" d="M292.267,283.199c0,22.213-18.007,40.212-40.204,40.212s-40.204-17.999-40.204-40.212
	c0-22.181,18.007-40.18,40.204-40.18S292.267,261.018,292.267,283.199z"/>
<path style="fill:#FF912E;" d="M292.267,283.199c0,22.213-18.007,40.212-40.204,40.212s-40.204-17.999-40.204-40.212
	c0-22.181,18.007,5.215,40.204,5.215S292.267,261.018,292.267,283.199z"/>
<g>
	<path style="fill:#FFE966;" d="M269.676,257.465c0,4.663-7.893,0.614-17.613,0.614s-17.605,4.049-17.605-0.614
		c0-4.71,7.885-8.483,17.605-8.483S269.676,252.755,269.676,257.465z"/>
	<circle style="fill:#FFE966;" cx="277.868" cy="262.617" r="2.481"/>
	<circle style="fill:#FFE966;" cx="229.496" cy="262.372" r="0.992"/>
</g>
<circle style="fill:#FFB92C;" cx="194.64" cy="368.089" r="37.148"/>
<path style="fill:#FF912E;" d="M220.894,341.788c14.494,14.509,14.494,38.03,0,52.539c-14.517,14.509-38.03,14.509-52.539,0
	c-14.525-14.509,15.155-8.365,29.68-22.859C212.537,356.951,206.377,327.263,220.894,341.788z"/>
<g>
	<path style="fill:#FFE966;" d="M189.292,339.708c3.048,3.064-4.758,5.585-11.091,11.926c-6.365,6.357-8.862,14.139-11.926,11.091
		c-3.064-3.08-0.394-10.705,5.955-17.046C178.603,339.322,186.228,336.644,189.292,339.708z"/>
	<circle style="fill:#FFE966;" cx="198.027" cy="337.762" r="2.292"/>
	<circle style="fill:#FFE966;" cx="166.26" cy="369.191" r="0.922"/>
</g>
<circle style="fill:#FFB92C;" cx="309.509" cy="368.089" r="37.148"/>
<path style="fill:#FF912E;" d="M283.248,341.788c-14.517,14.509-14.517,38.03-0.016,52.539c14.509,14.509,38.03,14.509,52.547,0
	s-15.163-8.365-29.672-22.859C291.597,356.951,297.741,327.263,283.248,341.788z"/>
<g>
	<path style="fill:#FFE966;" d="M314.842,339.708c-3.056,3.064,4.75,5.585,11.091,11.926c6.349,6.357,8.854,14.139,11.926,11.091
		c3.064-3.08,0.386-10.705-5.971-17.046C325.539,339.322,317.898,336.644,314.842,339.708z"/>
	<circle style="fill:#FFE966;" cx="306.099" cy="337.762" r="2.292"/>
	<circle style="fill:#FFE966;" cx="337.921" cy="369.191" r="0.929"/>
</g>
<path style="fill:#FFB92C;" d="M289.203,341.921c0,20.512-16.612,37.124-37.14,37.124c-20.512,0-37.148-16.612-37.148-37.124
	c0-20.535,16.628-37.155,37.148-37.155C272.582,304.766,289.203,321.386,289.203,341.921z"/>
<path style="fill:#FF912E;" d="M289.203,341.921c0,20.512-16.612,37.124-37.14,37.124c-20.512,0-37.148-16.612-37.148-37.124
	c0-20.535,16.628,4.797,37.148,4.797C272.582,346.726,289.203,321.386,289.203,341.921z"/>
<g>
	<path style="fill:#FFE966;" d="M268.337,318.11c0,4.324-7.286,0.583-16.274,0.583s-16.274,3.742-16.274-0.583
		c0-4.356,7.286-7.845,16.274-7.845C261.051,310.264,268.337,313.754,268.337,318.11z"/>
	<circle style="fill:#FFE966;" cx="275.914" cy="322.875" r="2.3"/>
	<circle style="fill:#FFE966;" cx="231.213" cy="322.647" r="0.914"/>
</g>
<circle style="fill:#FFB92C;" cx="208.275" cy="412.286" r="28.325"/>
<path style="fill:#FF912E;" d="M228.306,392.263c11.043,11.059,11.043,28.987,0,40.046c-11.067,11.059-29.003,11.059-40.062,0
	c-11.059-11.059,11.555-6.372,22.63-17.432C221.942,403.834,217.239,381.188,228.306,392.263z"/>
<g>
	<path style="fill:#FFE966;" d="M204.211,390.68c2.339,2.324-3.615,4.246-8.452,9.074c-4.844,4.844-6.743,10.799-9.09,8.46
		c-2.324-2.339-0.291-8.137,4.569-12.981C196.066,390.388,201.871,388.324,204.211,390.68z"/>
	<circle style="fill:#FFE966;" cx="210.867" cy="389.167" r="1.741"/>
	<circle style="fill:#FFE966;" cx="186.685" cy="413.152" r="0.701"/>
</g>
<circle style="fill:#FFB92C;" cx="295.859" cy="412.286" r="28.318"/>
<path style="fill:#FF912E;" d="M275.843,392.263c-11.067,11.059-11.067,28.987-0.024,40.046c11.059,11.059,29.003,11.059,40.062,0
	c11.059-11.059-11.563-6.372-22.623-17.432C282.184,403.834,286.879,381.188,275.843,392.263z"/>
<g>
	<path style="fill:#FFE966;" d="M299.915,390.68c-2.332,2.324,3.608,4.246,8.452,9.074c4.852,4.844,6.743,10.799,9.09,8.46
		c2.332-2.339,0.291-8.137-4.545-12.981C308.076,390.388,302.255,388.324,299.915,390.68z"/>
	<circle style="fill:#FFE966;" cx="293.259" cy="389.167" r="1.741"/>
	<circle style="fill:#FFE966;" cx="317.481" cy="413.152" r="0.701"/>
</g>
<circle style="fill:#FFB92C;" cx="252.063" cy="392.35" r="28.325"/>
<path style="fill:#FF912E;" d="M280.388,392.357c0,15.644-12.674,28.31-28.325,28.31c-15.636,0-28.325-12.658-28.325-28.31
	c0-15.628,12.682,3.663,28.325,3.663C267.707,396.012,280.388,376.722,280.388,392.357z"/>
<g>
	<path style="fill:#FFE966;" d="M264.461,374.201c0,3.293-5.553,0.449-12.398,0.449c-6.853,0-12.398,2.844-12.398-0.449
		c0-3.308,5.545-5.971,12.398-5.971C258.908,368.23,264.461,370.893,264.461,374.201z"/>
	<circle style="fill:#FFE966;" cx="270.243" cy="377.856" r="1.749"/>
	<circle style="fill:#FFE966;" cx="236.16" cy="377.698" r="0.701"/>
</g>
<path style="fill:#FFB92C;" d="M231.819,431.86c9.405,9.429,9.405,24.726,0,34.154c-9.437,9.429-24.726,9.429-34.154,0
	c-9.429-9.429-9.429-24.726,0-34.154C207.094,422.447,222.375,422.447,231.819,431.86z"/>
<path style="fill:#FF912E;" d="M231.819,431.86c9.405,9.429,9.405,24.726,0,34.154c-9.437,9.429-24.726,9.429-34.154,0
	c-9.429-9.429,9.854-5.427,19.283-14.864C226.376,441.714,222.375,422.447,231.819,431.86z"/>
<g>
	<path style="fill:#FFE966;" d="M211.261,430.521c1.993,1.985-3.08,3.616-7.199,7.735c-4.128,4.135-5.75,9.2-7.743,7.215
		c-1.993-1.985-0.252-6.955,3.883-11.075C204.329,430.277,209.268,428.52,211.261,430.521z"/>
	<circle style="fill:#FFE966;" cx="216.932" cy="429.237" r="1.489"/>
	<path style="fill:#FFE966;" d="M196.735,449.26c0.205,0.213,0.205,0.614,0,0.843c-0.244,0.228-0.63,0.228-0.851-0.016
		c-0.228-0.213-0.228-0.614,0-0.827C196.105,449.016,196.483,449.016,196.735,449.26z"/>
</g>
<circle style="fill:#FFB92C;" cx="289.4" cy="448.906" r="24.143"/>
<path style="fill:#FF912E;" d="M272.322,431.86c-9.421,9.429-9.421,24.726-0.016,34.154c9.429,9.429,24.726,9.429,34.154,0
	c9.429-9.429-9.862-5.427-19.283-14.864C277.75,441.722,281.743,422.447,272.322,431.86z"/>
<g>
	<path style="fill:#FFE966;" d="M292.858,430.521c-1.985,1.985,3.088,3.616,7.207,7.735c4.12,4.135,5.75,9.2,7.743,7.215
		c1.993-1.985,0.252-6.955-3.875-11.075S294.85,428.52,292.858,430.521z"/>
	<circle style="fill:#FFE966;" cx="287.178" cy="429.237" r="1.489"/>
	<path style="fill:#FFE966;" d="M307.398,449.26c-0.221,0.213-0.221,0.614,0,0.843c0.244,0.228,0.614,0.228,0.851-0.016
		c0.221-0.213,0.221-0.614,0-0.827C308.021,449.016,307.65,449.016,307.398,449.26z"/>
</g>
<circle style="fill:#FFB92C;" cx="252.063" cy="431.97" r="24.143"/>
<path style="fill:#FF912E;" d="M276.206,431.955c0,13.336-10.815,24.119-24.143,24.119s-24.143-10.784-24.143-24.119
	s10.815,3.119,24.143,3.119C265.391,435.074,276.206,418.619,276.206,431.955z"/>
<g>
	<path style="fill:#FFE966;" d="M262.634,416.477c0,2.812-4.734,0.386-10.571,0.386c-5.837,0-10.571,2.434-10.571-0.386
		s4.734-5.089,10.571-5.089C257.9,411.388,262.634,413.664,262.634,416.477z"/>
	<circle style="fill:#FFE966;" cx="267.557" cy="419.588" r="1.489"/>
	<circle style="fill:#FFE966;" cx="238.499" cy="419.43" r="0.607"/>
</g>
<circle style="fill:#FFB92C;" cx="225.675" cy="470.804" r="17.093"/>
<path style="fill:#FF912E;" d="M237.727,458.736c6.68,6.68,6.68,17.495,0,24.166c-6.68,6.664-17.503,6.664-24.166,0
	c-6.68-6.68,6.979-3.844,13.643-10.524C233.875,465.707,231.047,452.064,237.727,458.736z"/>
<g>
	<path style="fill:#FFE966;" d="M223.186,457.783c1.41,1.402-2.182,2.568-5.104,5.474c-2.922,2.922-4.072,6.506-5.482,5.104
		c-1.402-1.418-0.173-4.923,2.749-7.845C218.279,457.602,221.768,456.373,223.186,457.783z"/>
	<circle style="fill:#FFE966;" cx="227.211" cy="456.862" r="1.055"/>
	<path style="fill:#FFE966;" d="M212.891,471.048c0.158,0.158,0.158,0.433,0,0.599c-0.165,0.158-0.449,0.158-0.614-0.016
		c-0.15-0.158-0.15-0.433,0-0.583C212.45,470.859,212.726,470.859,212.891,471.048z"/>
</g>
<circle style="fill:#FFB92C;" cx="278.482" cy="470.804" r="17.093"/>
<path style="fill:#FF912E;" d="M266.399,458.736c-6.672,6.68-6.672,17.495,0,24.166c6.68,6.664,17.503,6.664,24.166,0
	c6.68-6.68-6.987-3.844-13.643-10.524C270.251,465.707,273.079,452.064,266.399,458.736z"/>
<g>
	<path style="fill:#FFE966;" d="M280.94,457.783c-1.402,1.402,2.182,2.568,5.104,5.474c2.922,2.922,4.072,6.506,5.482,5.104
		c1.402-1.418,0.173-4.923-2.749-7.845C285.855,457.602,282.358,456.373,280.94,457.783z"/>
	<circle style="fill:#FFE966;" cx="276.915" cy="456.862" r="1.055"/>
	<path style="fill:#FFE966;" d="M291.251,471.048c-0.165,0.158-0.165,0.433,0,0.599c0.165,0.158,0.433,0.158,0.591-0.016
		c0.165-0.158,0.165-0.433,0-0.583C291.676,470.859,291.408,470.859,291.251,471.048z"/>
</g>
<circle style="fill:#FFB92C;" cx="252.063" cy="458.784" r="17.093"/>
<path style="fill:#FF912E;" d="M269.156,458.784c0,9.444-7.656,17.093-17.093,17.093s-17.093-7.648-17.093-17.093
	c0-9.429,7.656,2.213,17.093,2.213C261.5,460.997,269.156,449.355,269.156,458.784z"/>
<g>
	<path style="fill:#FFE966;" d="M259.538,447.835c0,2.001-3.34,0.276-7.475,0.276c-4.128,0-7.483,1.725-7.483-0.276
		c0-2.001,3.356-3.6,7.483-3.6C256.198,444.227,259.538,445.834,259.538,447.835z"/>
	<circle style="fill:#FFE966;" cx="263.036" cy="450.032" r="1.055"/>
	<circle style="fill:#FFE966;" cx="242.453" cy="449.93" r="0.425"/>
</g>
<circle style="fill:#FFB92C;" cx="252.063" cy="487.03" r="17.093"/>
<path style="fill:#FF912E;" d="M269.156,487.03c0,9.444-7.656,17.093-17.093,17.093s-17.093-7.648-17.093-17.093
	c0-9.429,7.656,2.213,17.093,2.213C261.5,489.244,269.156,477.601,269.156,487.03z"/>
<g>
	<path style="fill:#FFE966;" d="M259.538,476.073c0,1.985-3.34,0.276-7.475,0.276c-4.128,0-7.483,1.709-7.483-0.276
		c0-1.985,3.356-3.6,7.483-3.6C256.198,472.474,259.538,474.096,259.538,476.073z"/>
	<circle style="fill:#FFE966;" cx="263.036" cy="478.287" r="1.055"/>
	<circle style="fill:#FFE966;" cx="242.453" cy="478.208" r="0.425"/>
</g>
<path style="fill:#68AD27;" d="M252.835,79.415c0,0,12.8,175.246-47.655,240.215c-52.894,56.832-44.174,95.571-44.174,95.571
	s-60.558-153.167-12.792-275.078C191.23,30.35,252.835,36.801,252.835,36.801V79.415z"/>
<path style="fill:#559B0B;" d="M252.835,79.415v-9.744c-19.787,3.749-61.574,21.488-93.286,102.416
	c-33.438,85.315-13.808,185.887,0.985,238.608c-0.544-11.689,2.284-45.552,44.646-91.065
	C265.635,254.661,252.835,79.415,252.835,79.415z"/>
<path style="fill:#447A0B;" d="M252.835,36.801v42.614c0,0,12.8,175.246-47.655,240.215"/>
<path style="fill:#68AD27;" d="M251.291,79.415c0,0-12.8,175.246,47.655,240.215c52.886,56.832,44.174,95.571,44.174,95.571
	s60.558-153.167,12.784-275.078c-43-109.773-104.613-103.322-104.613-103.322V79.415z"/>
<path style="fill:#559B0B;" d="M251.291,79.415v-9.744c19.787,3.749,61.566,21.488,93.286,102.416
	c33.438,85.315,13.808,185.887-0.992,238.608c0.551-11.689-2.276-45.552-44.639-91.065
	C238.491,254.661,251.291,79.415,251.291,79.415z"/>
<g>
	<path style="fill:#447A0B;" d="M251.291,36.801v42.614c0,0-12.8,175.246,47.655,240.215"/>
	<path style="fill:#447A0B;" d="M270.794,15.502c0,8.554-8.381,29.05-18.731,29.05c-10.35,0-18.731-20.504-18.731-29.05
		C233.332,6.94,241.705,0,252.063,0C262.405,0,270.794,6.94,270.794,15.502z"/>
</g>
<g>
</g>
<g>
</g>
<g>
</g>
<g>
</g>
<g>
</g>
<g>
</g>
<g>
</g>
<g>
</g>
<g>
</g>
<g>
</g>
<g>
</g>
<g>
</g>
<g>
</g>
<g>
</g>
<g>
</g>
</svg>
