<?xml version="1.0" encoding="iso-8859-1"?>
<!-- Generator: Adobe Illustrator 19.0.0, SVG Export Plug-In . SVG Version: 6.00 Build 0)  -->
<svg version="1.1" id="Layer_1" xmlns="http://www.w3.org/2000/svg" xmlns:xlink="http://www.w3.org/1999/xlink" x="0px" y="0px"
	 viewBox="0 0 504.126 504.126" style="enable-background:new 0 0 504.126 504.126;" xml:space="preserve">
<path style="fill:#F41650;" d="M455.311,237.177c0,112.238-91.002,266.949-203.248,266.949S48.815,349.415,48.815,237.177
	c0-112.246,91.002-151.678,203.248-151.678S455.311,124.931,455.311,237.177z"/>
<path style="fill:#E0103D;" d="M455.311,237.177c0,112.238-91.002,266.949-203.248,266.949S48.815,349.415,48.815,237.177
	c0-112.246,91.002-128.165,203.248-128.165S455.311,124.931,455.311,237.177z"/>
<g>
	<path style="fill:#C10C3C;" d="M455.311,237.177c0,112.238-91.002,266.949-203.248,266.949S48.815,349.415,48.815,237.177
		c0-112.246,91.002-14.982,203.248-14.982S455.311,124.931,455.311,237.177z"/>
	<path style="fill:#C10C3C;" d="M252.063,504.126c112.246,0,203.248-154.711,203.248-266.949
		c0-112.246-91.002-151.678-203.248-151.678"/>
</g>
<path style="fill:#AA0539;" d="M252.063,222.195v281.931c112.246,0,203.248-154.711,203.248-266.949
	C455.311,124.931,364.309,222.195,252.063,222.195z"/>
<circle style="fill:#A0104B;" cx="124.795" cy="147.561" r="9.043"/>
<path style="fill:#8E0939;" d="M133.838,147.561c0,5.002-4.057,9.043-9.035,9.043c-5.01,0-9.043-4.049-9.043-9.043
	c0-4.994,4.041-5.002,9.043-5.002C129.789,142.567,133.838,142.567,133.838,147.561z"/>
<circle style="fill:#A0104B;" cx="175.688" cy="147.561" r="9.043"/>
<path style="fill:#8E0939;" d="M184.731,147.561c0,5.002-4.041,9.043-9.035,9.043c-4.978,0-9.043-4.049-9.043-9.043
	c0-4.994,4.072-5.002,9.043-5.002C180.69,142.567,184.731,142.567,184.731,147.561z"/>
<path style="fill:#A0104B;" d="M235.647,147.561c0,5.002-4.025,9.043-9.043,9.043c-4.994,0-9.027-4.049-9.027-9.043
	c0-4.994,4.041-9.043,9.027-9.043C231.622,138.518,235.647,142.567,235.647,147.561z"/>
<path style="fill:#8E0939;" d="M235.647,147.561c0,5.002-4.025,9.043-9.043,9.043c-4.994,0-9.027-4.049-9.027-9.043
	c0-4.994,4.041-5.002,9.027-5.002C231.622,142.567,235.647,142.567,235.647,147.561z"/>
<circle style="fill:#A0104B;" cx="277.513" cy="147.561" r="9.035"/>
<path style="fill:#8E0939;" d="M286.556,147.561c0,5.002-4.049,9.043-9.043,9.043s-9.027-4.049-9.027-9.043
	c0-4.994,4.041-5.002,9.027-5.002C282.507,142.567,286.556,142.567,286.556,147.561z"/>
<circle style="fill:#A0104B;" cx="328.469" cy="147.561" r="9.043"/>
<path style="fill:#8E0939;" d="M337.48,147.561c0,5.002-4.057,9.043-9.043,9.043c-5.002,0-9.035-4.049-9.035-9.043
	c0-4.994,4.041-5.002,9.035-5.002C333.424,142.567,337.48,142.567,337.48,147.561z"/>
<circle style="fill:#A0104B;" cx="379.338" cy="147.561" r="9.035"/>
<path style="fill:#8E0939;" d="M388.373,147.561c0,5.002-4.041,9.043-9.027,9.043c-5.002,0-9.035-4.049-9.035-9.043
	c0-4.994,4.041-5.002,9.035-5.002C384.332,142.567,388.373,142.567,388.373,147.561z"/>
<circle style="fill:#A0104B;" cx="124.78" cy="198.824" r="9.043"/>
<path style="fill:#8E0939;" d="M133.822,198.824c0,5.002-4.041,9.043-9.035,9.043c-4.978,0-9.043-4.049-9.043-9.043
	s4.072-5.002,9.043-5.002C129.789,193.822,133.822,193.822,133.822,198.824z"/>
<path style="fill:#A0104B;" d="M184.739,198.824c0,5.002-4.017,9.043-9.035,9.043c-4.994,0-9.035-4.049-9.035-9.043
	s4.049-9.043,9.035-9.043C180.722,189.781,184.739,193.822,184.739,198.824z"/>
<path style="fill:#8E0939;" d="M184.739,198.824c0,5.002-4.017,9.043-9.035,9.043c-4.994,0-9.035-4.049-9.035-9.043
	s4.049-5.002,9.035-5.002C180.722,193.822,184.739,193.822,184.739,198.824z"/>
<circle style="fill:#A0104B;" cx="226.62" cy="198.824" r="9.043"/>
<path style="fill:#8E0939;" d="M235.655,198.824c0,5.002-4.057,9.043-9.051,9.043c-4.994,0-9.027-4.049-9.027-9.043
	s4.041-5.002,9.027-5.002C231.599,193.822,235.655,193.822,235.655,198.824z"/>
<circle style="fill:#A0104B;" cx="277.529" cy="198.824" r="9.035"/>
<path style="fill:#8E0939;" d="M286.572,198.824c0,5.002-4.049,9.043-9.043,9.043c-5.01,0-9.027-4.049-9.027-9.043
	s4.025-5.002,9.027-5.002C282.523,193.822,286.572,193.822,286.572,198.824z"/>
<circle style="fill:#A0104B;" cx="328.469" cy="198.824" r="9.035"/>
<path style="fill:#8E0939;" d="M337.472,198.824c0,5.002-4.049,9.043-9.035,9.043s-9.035-4.049-9.035-9.043s4.049-5.002,9.035-5.002
	S337.472,193.822,337.472,198.824z"/>
<circle style="fill:#A0104B;" cx="379.346" cy="198.824" r="9.043"/>
<path style="fill:#8E0939;" d="M388.389,198.824c0,5.002-4.057,9.043-9.043,9.043c-4.986,0-9.035-4.049-9.035-9.043
	s4.057-5.002,9.035-5.002C384.332,193.822,388.389,193.822,388.389,198.824z"/>
<circle style="fill:#A0104B;" cx="99.329" cy="245.96" r="9.043"/>
<path style="fill:#8E0939;" d="M108.38,245.96c0,5.002-4.057,9.043-9.035,9.043c-5.01,0-9.043-4.049-9.043-9.043
	s4.041-4.994,9.043-4.994C104.323,240.966,108.38,240.966,108.38,245.96z"/>
<circle style="fill:#A0104B;" cx="150.222" cy="245.96" r="9.035"/>
<path style="fill:#8E0939;" d="M159.265,245.96c0,5.002-4.033,9.043-9.027,9.043c-4.978,0-9.043-4.049-9.043-9.043
	s4.072-4.994,9.043-4.994C155.232,240.966,159.265,240.966,159.265,245.96z"/>
<path style="fill:#A0104B;" d="M210.189,245.96c0,5.002-4.025,9.043-9.035,9.043c-4.994,0-9.035-4.049-9.035-9.043
	s4.049-9.043,9.035-9.043C206.164,236.917,210.189,240.966,210.189,245.96z"/>
<path style="fill:#8E0939;" d="M210.189,245.96c0,5.002-4.025,9.043-9.035,9.043c-4.994,0-9.035-4.049-9.035-9.043
	s4.049-4.994,9.035-4.994C206.164,240.966,210.189,240.966,210.189,245.96z"/>
<circle style="fill:#A0104B;" cx="252.063" cy="245.96" r="9.043"/>
<path style="fill:#8E0939;" d="M261.098,245.96c0,5.002-4.049,9.043-9.051,9.043c-4.994,0-9.027-4.049-9.027-9.043
	s4.041-4.994,9.027-4.994C257.057,240.966,261.098,240.966,261.098,245.96z"/>
<circle style="fill:#A0104B;" cx="302.979" cy="245.96" r="9.035"/>
<path style="fill:#8E0939;" d="M312.014,245.96c0,5.002-4.049,9.043-9.043,9.043c-5.01,0-9.027-4.049-9.027-9.043
	s4.025-4.994,9.027-4.994S312.014,240.966,312.014,245.96z"/>
<circle style="fill:#A0104B;" cx="353.911" cy="245.96" r="9.035"/>
<path style="fill:#8E0939;" d="M362.915,245.96c0,5.002-4.049,9.043-9.035,9.043s-9.035-4.049-9.035-9.043s4.049-4.994,9.035-4.994
	S362.915,240.966,362.915,245.96z"/>
<circle style="fill:#A0104B;" cx="404.788" cy="245.96" r="9.043"/>
<path style="fill:#8E0939;" d="M413.831,245.96c0,5.002-4.057,9.043-9.043,9.043s-9.035-4.049-9.035-9.043s4.057-4.994,9.035-4.994
	C409.775,240.966,413.831,240.966,413.831,245.96z"/>
<circle style="fill:#A0104B;" cx="124.78" cy="299.341" r="9.043"/>
<path style="fill:#8E0939;" d="M133.822,299.341c0,5.018-4.041,9.043-9.035,9.043c-4.978,0-9.043-4.033-9.043-9.043
	c0-4.986,4.072-4.986,9.043-4.986C129.789,294.355,133.822,294.355,133.822,299.341z"/>
<path style="fill:#A0104B;" d="M184.739,299.341c0,5.018-4.017,9.043-9.035,9.043c-4.994,0-9.035-4.033-9.035-9.043
	c0-4.986,4.049-9.027,9.035-9.027C180.722,290.307,184.739,294.355,184.739,299.341z"/>
<path style="fill:#8E0939;" d="M184.739,299.341c0,5.018-4.017,9.043-9.035,9.043c-4.994,0-9.035-4.033-9.035-9.043
	c0-4.986,4.049-4.986,9.035-4.986C180.722,294.355,184.739,294.355,184.739,299.341z"/>
<circle style="fill:#A0104B;" cx="226.62" cy="299.341" r="9.043"/>
<path style="fill:#8E0939;" d="M235.655,299.341c0,5.018-4.057,9.043-9.051,9.043c-4.994,0-9.027-4.033-9.027-9.043
	c0-4.986,4.041-4.986,9.027-4.986C231.599,294.355,235.655,294.355,235.655,299.341z"/>
<circle style="fill:#A0104B;" cx="277.529" cy="299.341" r="9.035"/>
<path style="fill:#8E0939;" d="M286.572,299.341c0,5.018-4.049,9.043-9.043,9.043c-5.01,0-9.027-4.033-9.027-9.043
	c0-4.986,4.025-4.986,9.027-4.986C282.523,294.355,286.572,294.355,286.572,299.341z"/>
<circle style="fill:#A0104B;" cx="328.469" cy="299.341" r="9.035"/>
<path style="fill:#8E0939;" d="M337.472,299.341c0,5.018-4.049,9.043-9.035,9.043s-9.035-4.033-9.035-9.043
	c0-4.986,4.049-4.986,9.035-4.986S337.472,294.355,337.472,299.341z"/>
<circle style="fill:#A0104B;" cx="379.346" cy="299.341" r="9.043"/>
<path style="fill:#8E0939;" d="M388.389,299.341c0,5.018-4.057,9.043-9.043,9.043c-4.986,0-9.035-4.033-9.035-9.043
	c0-4.986,4.057-4.986,9.035-4.986C384.332,294.355,388.389,294.355,388.389,299.341z"/>
<circle style="fill:#A0104B;" cx="124.78" cy="346.477" r="9.043"/>
<path style="fill:#8E0939;" d="M133.822,346.477c0,5.018-4.041,9.043-9.035,9.043c-4.978,0-9.043-4.033-9.043-9.043
	c0-4.986,4.072-4.986,9.043-4.986C129.789,341.499,133.822,341.499,133.822,346.477z"/>
<path style="fill:#A0104B;" d="M184.739,346.477c0,5.018-4.017,9.043-9.035,9.043c-4.994,0-9.035-4.033-9.035-9.043
	c0-4.986,4.049-9.027,9.035-9.027C180.722,337.45,184.739,341.499,184.739,346.477z"/>
<path style="fill:#8E0939;" d="M184.739,346.477c0,5.018-4.017,9.043-9.035,9.043c-4.994,0-9.035-4.033-9.035-9.043
	c0-4.986,4.049-4.986,9.035-4.986C180.722,341.499,184.739,341.499,184.739,346.477z"/>
<circle style="fill:#A0104B;" cx="226.62" cy="346.477" r="9.043"/>
<path style="fill:#8E0939;" d="M235.655,346.477c0,5.018-4.057,9.043-9.051,9.043c-4.994,0-9.027-4.033-9.027-9.043
	c0-4.986,4.041-4.986,9.027-4.986C231.599,341.499,235.655,341.499,235.655,346.477z"/>
<circle style="fill:#A0104B;" cx="277.529" cy="346.477" r="9.035"/>
<path style="fill:#8E0939;" d="M286.572,346.477c0,5.018-4.049,9.043-9.043,9.043c-5.01,0-9.027-4.033-9.027-9.043
	c0-4.986,4.025-4.986,9.027-4.986C282.523,341.499,286.572,341.499,286.572,346.477z"/>
<circle style="fill:#A0104B;" cx="328.469" cy="346.477" r="9.035"/>
<path style="fill:#8E0939;" d="M337.472,346.477c0,5.018-4.049,9.043-9.035,9.043s-9.035-4.033-9.035-9.043
	c0-4.986,4.049-4.986,9.035-4.986S337.472,341.499,337.472,346.477z"/>
<circle style="fill:#A0104B;" cx="379.346" cy="346.477" r="9.043"/>
<path style="fill:#8E0939;" d="M388.389,346.477c0,5.018-4.057,9.043-9.043,9.043c-4.986,0-9.035-4.033-9.035-9.043
	c0-4.986,4.057-4.986,9.035-4.986C384.332,341.499,388.389,341.499,388.389,346.477z"/>
<path style="fill:#A0104B;" d="M159.281,397.74c0,5.018-4.033,9.043-9.027,9.043c-4.97,0-9.043-4.033-9.043-9.043
	c0-5.002,4.08-9.043,9.043-9.043C155.248,388.697,159.281,392.738,159.281,397.74z"/>
<path style="fill:#8E0939;" d="M159.281,397.74c0,5.018-4.033,9.043-9.027,9.043c-4.97,0-9.043-4.033-9.043-9.043
	c0-5.002,4.08-5.002,9.043-5.002C155.248,392.738,159.281,392.738,159.281,397.74z"/>
<path style="fill:#A0104B;" d="M210.205,397.74c0,5.018-4.025,9.043-9.043,9.043c-5.002,0-9.027-4.033-9.027-9.043
	c0-5.002,4.033-9.043,9.027-9.043C206.18,388.697,210.205,392.738,210.205,397.74z"/>
<path style="fill:#8E0939;" d="M210.205,397.74c0,5.018-4.025,9.043-9.043,9.043c-5.002,0-9.027-4.033-9.027-9.043
	c0-5.002,4.033-5.002,9.027-5.002C206.18,392.738,210.205,392.738,210.205,397.74z"/>
<circle style="fill:#A0104B;" cx="252.071" cy="397.74" r="9.035"/>
<path style="fill:#8E0939;" d="M261.106,397.74c0,5.018-4.049,9.043-9.043,9.043c-4.994,0-9.027-4.033-9.027-9.043
	c0-5.002,4.033-5.002,9.027-5.002C257.057,392.738,261.106,392.738,261.106,397.74z"/>
<circle style="fill:#A0104B;" cx="302.995" cy="397.74" r="9.035"/>
<path style="fill:#8E0939;" d="M312.03,397.74c0,5.018-4.057,9.043-9.043,9.043c-5.002,0-9.027-4.033-9.027-9.043
	c0-5.002,4.033-5.002,9.027-5.002S312.03,392.738,312.03,397.74z"/>
<circle style="fill:#A0104B;" cx="353.911" cy="397.74" r="9.035"/>
<path style="fill:#8E0939;" d="M362.923,397.74c0,5.018-4.041,9.043-9.027,9.043c-5.002,0-9.035-4.033-9.035-9.043
	c0-5.002,4.041-5.002,9.035-5.002S362.923,392.738,362.923,397.74z"/>
<path style="fill:#A0104B;" d="M184.731,444.883c0,5.018-4.009,9.043-9.035,9.043c-5.002,0-9.027-4.033-9.027-9.043
	c0-5.002,4.033-9.043,9.027-9.043C180.722,435.833,184.731,439.882,184.731,444.883z"/>
<path style="fill:#8E0939;" d="M184.731,444.883c0,5.018-4.009,9.043-9.035,9.043c-5.002,0-9.027-4.033-9.027-9.043
	c0-5.002,4.033-5.002,9.027-5.002C180.722,439.882,184.731,439.882,184.731,444.883z"/>
<circle style="fill:#A0104B;" cx="226.62" cy="444.883" r="9.035"/>
<path style="fill:#8E0939;" d="M235.647,444.883c0,5.018-4.049,9.043-9.043,9.043c-4.994,0-9.027-4.033-9.027-9.043
	c0-5.002,4.041-5.002,9.027-5.002C231.599,439.882,235.647,439.882,235.647,444.883z"/>
<circle style="fill:#A0104B;" cx="277.521" cy="444.883" r="9.043"/>
<path style="fill:#8E0939;" d="M286.572,444.883c0,5.018-4.064,9.043-9.043,9.043c-5.01,0-9.043-4.033-9.043-9.043
	c0-5.002,4.041-5.002,9.043-5.002C282.507,439.882,286.572,439.882,286.572,444.883z"/>
<circle style="fill:#A0104B;" cx="328.469" cy="444.883" r="9.035"/>
<path style="fill:#8E0939;" d="M337.464,444.883c0,5.018-4.041,9.043-9.027,9.043c-5.002,0-9.035-4.033-9.035-9.043
	c0-5.002,4.041-5.002,9.035-5.002C333.424,439.882,337.464,439.882,337.464,444.883z"/>
<path style="fill:#3A8708;" d="M321.474,24.059c0,0,2.371-21.89-20.047-23.985c-22.41-2.08-34.202,40.676-34.202,40.676
	s0-27.104-11.8-36.494c-1.3-1.048-2.41-1.323-3.371-1.095c-0.953-0.228-2.064,0.047-3.371,1.095
	c-11.8,9.381-11.8,36.494-11.8,36.494S225.092-2.006,202.682,0.073c-22.418,2.095-20.047,23.985-20.047,23.985
	c-10.61-22.938-81.377-42.756-58.967,18.786c19.495,53.508,104.054,66.001,125.787,68.356c0.039,0.26,0.079,0.48,0.079,0.48
	s0.906-0.063,2.521-0.197c1.615,0.142,2.521,0.197,2.521,0.197s0.039-0.213,0.079-0.48c21.732-2.355,106.299-14.848,125.787-68.356
	C402.859-18.697,332.092,1.121,321.474,24.059z"/>
<path style="fill:#49A010;" d="M121.912,10.794c0.512,1.709,1.095,3.474,1.772,5.341C143.18,69.658,227.739,82.151,249.471,84.49
	c0.039,0.276,0.079,0.488,0.079,0.488s0.906-0.079,2.521-0.213c1.615,0.142,2.521,0.213,2.521,0.213s0.039-0.213,0.079-0.488
	c21.732-2.339,106.299-14.832,125.787-68.356c0.677-1.859,1.26-3.631,1.78-5.341C371.343-8.623,329.469,6.84,321.49,24.059
	c0,0,2.371-21.89-20.047-23.985c-22.41-2.08-34.202,40.676-34.202,40.676s0-27.104-11.8-36.494c-1.3-1.048-2.41-1.323-3.371-1.095
	c-0.953-0.228-2.064,0.047-3.371,1.095c-11.8,9.381-11.8,36.494-11.8,36.494S225.108-2.006,202.698,0.073
	c-22.418,2.095-20.047,23.985-20.047,23.985C174.68,6.84,132.798-8.623,121.912,10.794z"/>
<g>
</g>
<g>
</g>
<g>
</g>
<g>
</g>
<g>
</g>
<g>
</g>
<g>
</g>
<g>
</g>
<g>
</g>
<g>
</g>
<g>
</g>
<g>
</g>
<g>
</g>
<g>
</g>
<g>
</g>
</svg>
