<?xml version="1.0" encoding="iso-8859-1"?>
<!-- Generator: Adobe Illustrator 19.0.0, SVG Export Plug-In . SVG Version: 6.00 Build 0)  -->
<svg version="1.1" id="Layer_1" xmlns="http://www.w3.org/2000/svg" xmlns:xlink="http://www.w3.org/1999/xlink" x="0px" y="0px"
	 viewBox="0 0 504.125 504.125" style="enable-background:new 0 0 504.125 504.125;" xml:space="preserve">
<path style="fill:#7FAD8F;" d="M347.208,129.623c-39.526,0-74.39,19.936-95.145,50.271c-20.756-30.334-55.603-50.271-95.153-50.271
	c-63.614,0-117.508,51.641-115.2,115.216c4.246,118.059,152.899,121.612,203.398,250.321c2.544,6.522,4.852,9.153,6.955,8.956
	c2.111,0.197,4.427-2.434,6.971-8.956c50.483-128.709,199.129-132.261,203.382-250.321
	C464.724,181.264,410.854,129.623,347.208,129.623z"/>
<path style="fill:#91BCA2;" d="M252.063,295.022c76.485,0,146.054,2.521,197.986-1c7.2-14.092,11.674-30.137,12.367-49.184
	c1.079-29.649-10.153-56.611-28.806-77.028c-11.043-3.143-22.725-6.018-34.989-8.57c-5.278-0.528-10.61-0.811-15.99-0.811
	c-54.241,0-102.085,27.357-130.56,68.978c-28.475-41.622-76.296-68.978-130.56-68.978c-5.388,0-10.72,0.291-15.99,0.811
	c-12.256,2.544-23.938,5.419-34.958,8.554c-18.668,20.433-29.917,47.395-28.837,77.044c0.685,19.046,5.167,35.092,12.359,49.184
	C106.009,297.543,175.57,295.022,252.063,295.022z"/>
<path style="fill:#A7C6B6;" d="M252.063,229.171c99.848,0,183.548,5.9,206.131-18.188c-9.452-32.295-33.768-58.518-64.827-71.83
	c-10.594-3.379-22.15-6.372-34.501-8.94c-3.836-0.386-7.727-0.591-11.65-0.591c-39.526,0-74.39,19.936-95.145,50.271
	c-20.756-30.334-55.603-50.271-95.153-50.271c-3.915,0-7.806,0.213-11.65,0.591c-12.327,2.56-23.891,5.553-34.469,8.932
	c-31.067,13.304-55.391,39.55-64.859,71.845C68.53,235.071,152.223,229.171,252.063,229.171z"/>
<g>
	<path style="fill:#BFD8CC;" d="M219.247,178.144c0,18.196-25.789,0.717-57.612,0.717c-31.807,0-57.596,17.479-57.596-0.717
		c0-18.18,25.789-32.918,57.596-32.918C193.458,145.235,219.247,159.972,219.247,178.144z"/>
	<circle style="fill:#BFD8CC;" cx="84.481" cy="189.81" r="9.255"/>
	<circle style="fill:#BFD8CC;" cx="70.594" cy="206.785" r="3.088"/>
	<path style="fill:#BFD8CC;" d="M405.812,178.144c0,18.196-25.797,0.717-57.604,0.717c-31.823,0-57.612,17.479-57.612-0.717
		c0-18.18,25.789-32.918,57.612-32.918C380.008,145.235,405.812,159.972,405.812,178.144z"/>
	<circle style="fill:#BFD8CC;" cx="271.038" cy="189.81" r="9.263"/>
	<circle style="fill:#BFD8CC;" cx="257.183" cy="206.785" r="3.088"/>
</g>
<path style="fill:#2F7745;" d="M251.952,179.893c0,0,11.618-133.23-61.448-164.825c-48.601-21.039-44.316,40.629-17.235,50.483
	c0,0-46.616-33.658-58.959-3.316c-9.901,24.34,25.726,40.251,52.791,40.251c0,0-48.167-7.845-48.018,12.32
	c0.118,14.958,12.304,19.7,56.643,14.761C220.067,124.66,251.952,179.893,251.952,179.893z"/>
<path style="fill:#3D9955;" d="M190.512,15.069c-16.589-7.184-27.018-4.718-32.469,2.032c1.032,15.833,38.589,32.272,60.7,70.861
	c13.58,23.678,13.162,57.958,20.827,74.76c7.916,9.429,12.39,17.172,12.39,17.172S263.571,46.663,190.512,15.069z"/>
<path style="fill:#2F7745;" d="M252.181,179.893c0,0-11.626-133.23,61.44-164.825c48.593-21.039,44.316,40.629,17.235,50.483
	c0,0,46.616-33.658,58.951-3.316c9.909,24.34-25.718,40.251-52.791,40.251c0,0,48.167-7.845,48.018,12.32
	c-0.118,14.958-12.304,19.7-56.635,14.761C284.059,124.66,252.181,179.893,252.181,179.893z"/>
<path style="fill:#3D9955;" d="M313.613,15.069c16.581-7.184,27.018-4.718,32.461,2.032c-1.024,15.833-38.581,32.272-60.692,70.861
	c-13.58,23.678-13.162,57.958-20.834,74.76c-7.908,9.429-12.375,17.172-12.375,17.172S240.555,46.663,313.613,15.069z"/>
<circle style="fill:#2F7745;" cx="252.063" cy="16.801" r="16.801"/>
<path style="fill:#3D9955;" d="M268.864,16.801c0,9.279-7.522,2.229-16.801,2.229s-16.801,7.05-16.801-2.229S242.784,0,252.063,0
	C261.342,0,268.864,7.522,268.864,16.801z"/>
<circle style="fill:#2F7745;" cx="252.063" cy="51.594" r="8.995"/>
<path style="fill:#3D9955;" d="M261.058,51.562c0,4.97-4.025,1.189-8.995,1.189s-8.995,3.773-8.995-1.189s4.025-9.003,8.995-9.003
	S261.058,46.592,261.058,51.562z"/>
<g>
</g>
<g>
</g>
<g>
</g>
<g>
</g>
<g>
</g>
<g>
</g>
<g>
</g>
<g>
</g>
<g>
</g>
<g>
</g>
<g>
</g>
<g>
</g>
<g>
</g>
<g>
</g>
<g>
</g>
</svg>
