<?xml version="1.0" encoding="iso-8859-1"?>
<!-- Generator: Adobe Illustrator 19.0.0, SVG Export Plug-In . SVG Version: 6.00 Build 0)  -->
<svg version="1.1" id="Layer_1" xmlns="http://www.w3.org/2000/svg" xmlns:xlink="http://www.w3.org/1999/xlink" x="0px" y="0px"
	 viewBox="0 0 504.123 504.123" style="enable-background:new 0 0 504.123 504.123;" xml:space="preserve">
<path style="fill:#FF912E;" d="M248.103,401.353c0,4.017-3.261,7.278-7.278,7.278l0,0c-4.017,0-7.263-3.261-7.263-7.278V105.527
	c0-4.009,3.245-7.263,7.263-7.263l0,0c4.017,0,7.278,3.253,7.278,7.263V401.353z"/>
<g>
	<path style="fill:#FFB92C;" d="M233.563,105.527c0-4.009,3.245-7.263,7.263-7.263l0,0c4.017,0,7.278,3.253,7.278,7.263v295.826"/>
</g>
<path style="fill:#559B0B;" d="M248.103,496.845c0,4.017-3.261,7.278-7.278,7.278l0,0c-4.017,0-7.263-3.261-7.263-7.278v-93.412
	c0-4.017,3.245-7.263,7.263-7.263l0,0c4.017,0,7.278,3.245,7.278,7.263V496.845z"/>
<path style="fill:#FFB92C;" d="M240.825,0v110.726c0,0-36.092-8.42-36.092-39.715C204.733,39.723,240.825,0,240.825,0z"/>
<path style="fill:#FF912E;" d="M240.825,0v110.726c0,0,36.108-8.42,36.108-39.715C276.933,39.723,240.825,0,240.825,0z"/>
<path style="fill:#FFB92C;" d="M163.119,92.885l67.537,67.513c0,0-27.167,16.888-46.245-2.19
	C165.317,139.122,163.119,92.885,163.119,92.885z"/>
<g>
	<path style="fill:#FF912E;" d="M163.119,92.885l67.537,67.513c0,0,16.88-27.144-2.213-46.238
		C209.365,95.082,163.119,92.885,163.119,92.885z"/>
	<path style="fill:#FF912E;" d="M319.87,92.885l-67.521,67.513c0,0,27.168,16.888,46.245-2.19
		C317.672,139.122,319.87,92.885,319.87,92.885z"/>
</g>
<g>
	<path style="fill:#FFB92C;" d="M319.87,92.885l-67.521,67.513c0,0-16.88-27.144,2.198-46.238
		C273.64,95.082,319.87,92.885,319.87,92.885z"/>
	<path style="fill:#FFB92C;" d="M163.119,163.47l67.537,67.513c0,0-27.167,16.888-46.245-2.198
		C165.317,209.707,163.119,163.47,163.119,163.47z"/>
</g>
<g>
	<path style="fill:#FF912E;" d="M163.119,163.47l67.537,67.513c0,0,16.88-27.144-2.213-46.238
		C209.365,165.66,163.119,163.47,163.119,163.47z"/>
	<path style="fill:#FF912E;" d="M319.87,163.47l-67.521,67.513c0,0,27.168,16.888,46.245-2.198
		C317.672,209.707,319.87,163.47,319.87,163.47z"/>
</g>
<g>
	<path style="fill:#FFB92C;" d="M319.87,163.47l-67.521,67.513c0,0-16.88-27.144,2.198-46.238
		C273.64,165.66,319.87,163.47,319.87,163.47z"/>
	<path style="fill:#FFB92C;" d="M163.119,234.055l67.537,67.513c0,0-27.167,16.88-46.245-2.198
		C165.317,280.292,163.119,234.055,163.119,234.055z"/>
</g>
<g>
	<path style="fill:#FF912E;" d="M163.119,234.055l67.537,67.513c0,0,16.88-27.152-2.213-46.245
		C209.365,236.245,163.119,234.055,163.119,234.055z"/>
	<path style="fill:#FF912E;" d="M319.87,234.055l-67.521,67.513c0,0,27.168,16.88,46.245-2.198
		C317.672,280.292,319.87,234.055,319.87,234.055z"/>
</g>
<g>
	<path style="fill:#FFB92C;" d="M319.87,234.055l-67.521,67.513c0,0-16.88-27.152,2.198-46.245
		C273.64,236.245,319.87,234.055,319.87,234.055z"/>
	<path style="fill:#FFB92C;" d="M163.119,304.632l67.537,67.521c0,0-27.167,16.88-46.245-2.198
		C165.317,350.878,163.119,304.632,163.119,304.632z"/>
</g>
<g>
	<path style="fill:#FF912E;" d="M163.119,304.632l67.537,67.521c0,0,16.88-27.152-2.213-46.245
		C209.365,306.83,163.119,304.632,163.119,304.632z"/>
	<path style="fill:#FF912E;" d="M319.87,304.632l-67.521,67.521c0,0,27.168,16.88,46.245-2.198S319.87,304.632,319.87,304.632z"/>
</g>
<path style="fill:#FFB92C;" d="M319.87,304.632l-67.521,67.521c0,0-16.88-27.152,2.198-46.245
	C273.64,306.83,319.87,304.632,319.87,304.632z"/>
<path style="fill:#559B0B;" d="M247.584,465.203c0,0,9.342-62.803,49.31-57.612c39.952,5.183,44.111-43.599,44.111-43.599
	s0,45.678-38.92,65.402s-40.999,55.54-54.493,55.012C234.098,483.879,247.584,465.203,247.584,465.203z"/>
<g>
</g>
<g>
</g>
<g>
</g>
<g>
</g>
<g>
</g>
<g>
</g>
<g>
</g>
<g>
</g>
<g>
</g>
<g>
</g>
<g>
</g>
<g>
</g>
<g>
</g>
<g>
</g>
<g>
</g>
</svg>
