<?xml version="1.0" encoding="iso-8859-1"?>
<svg width="99" height="90" viewBox="0 0 99 90" fill="none" xmlns="http://www.w3.org/2000/svg">
<path d="M37.0282 48.0531C39.0937 64.9638 61.2003 68.4697 61.2003 68.4697C60.4174 43.5518 43.7654 17.9467 43.7654 17.9467C66.8872 43.5465 66.2851 78.8815 66.0307 84.5101C61.8949 81.5625 56.5215 79.4662 56.5215 79.4662C38.9919 44.9013 0 74.1289 0 74.1289C11.9114 72.344 21.6984 84.0879 32.3104 88.5364C43.6832 93.3026 54.4176 83.6651 54.4176 83.6651C39.4981 73.6355 17.516 72.1509 17.516 72.1509C44.4233 69.8503 66.2803 88.0788 66.2803 88.0788L66.6105 87.8719L66.5412 88.2746C70.4675 87.0792 75.6736 83.1711 75.6736 83.1711C104.143 83.3126 97.4094 49.4343 97.4094 49.4343C94.7489 57.4811 83.844 59.836 77.4884 65.0614C70.6781 70.6599 73.5816 80.4985 73.5816 80.4985C85.0085 74.3701 93.0727 61.0599 93.0727 61.0599C87.2938 75.3 73.7327 83.1474 68.7388 85.6358C69.8151 77.8602 67.8606 67.2806 67.8606 67.2806C93.5042 18.949 26.8043 0.205894 26.8043 0.205894C38.8463 11.9107 34.9633 31.143 37.0282 48.0531Z" fill="url(#paint0_linear)"/>
<defs>
<linearGradient id="paint0_linear" x1="-0.000373569" y1="45.033" x2="98.1037" y2="45.033" gradientUnits="userSpaceOnUse">
<stop stop-color="#599146"/>
<stop offset="0.940185" stop-color="#99CD55"/>
<stop offset="1" stop-color="#99CD55"/>
</linearGradient>
</defs>
</svg>

