<?xml version="1.0" encoding="UTF-8" standalone="no"?>
<svg width="243" height="68" viewBox="0 0 243 68" fill="none" xmlns="http://www.w3.org/2000/svg">
<path d="M21.5207 37.8086C22.7211 47.637 35.5694 49.6747 35.5694 49.6747C35.1144 35.1925 25.4363 20.3109 25.4363 20.3109C38.8746 35.1894 38.5247 55.726 38.3768 58.9973C35.9731 57.2842 32.8501 56.0658 32.8501 56.0658C22.662 35.9768 0 52.9638 0 52.9638C6.92288 51.9264 12.611 58.7519 18.7787 61.3374C25.3885 64.1075 31.6273 58.5062 31.6273 58.5062C22.9562 52.677 10.1803 51.8142 10.1803 51.8142C25.8187 50.4771 38.5219 61.0714 38.5219 61.0714L38.7138 60.9512L38.6735 61.1852C40.9555 60.4905 43.9813 58.2191 43.9813 58.2191C60.5274 58.3013 56.614 38.6114 56.614 38.6114C55.0677 43.2882 48.7298 44.6568 45.036 47.6938C41.0779 50.9476 42.7654 56.6658 42.7654 56.6658C49.4067 53.104 54.0935 45.3681 54.0935 45.3681C50.7348 53.6445 42.8532 58.2053 39.9508 59.6516C40.5763 55.1324 39.4404 48.9836 39.4404 48.9836C54.3443 20.8934 15.5786 10 15.5786 10C22.5773 16.8028 20.3206 27.9805 21.5207 37.8086Z" fill="url(#paint0_linear)"/>
<path d="M92.3446 37H88.5751L74.2588 15.086V37H70.4893V8.56261H74.2588L88.6142 30.5742V8.56261H92.3446V37ZM115.059 29.5782H103.145L100.47 37H96.6024L107.462 8.56261H110.743L121.622 37H117.774L115.059 29.5782ZM104.278 26.4922H113.946L109.102 13.1915L104.278 26.4922ZM142.559 11.6485H133.419V37H129.688V11.6485H120.567V8.56261H142.559V11.6485ZM166.797 8.56261V27.8985C166.784 30.5808 165.938 32.7748 164.258 34.4805C162.592 36.1862 160.326 37.1432 157.462 37.3516L156.465 37.3906C153.354 37.3906 150.873 36.5508 149.024 34.8711C147.175 33.1914 146.238 30.8802 146.212 27.9375V8.56261H149.923V27.8203C149.923 29.8776 150.489 31.4792 151.622 32.625C152.755 33.7578 154.369 34.3242 156.465 34.3242C158.588 34.3242 160.209 33.7578 161.329 32.625C162.462 31.4922 163.028 29.8972 163.028 27.8399V8.56261H166.797ZM183.145 25.4961H176.465V37H172.696V8.56261H182.11C185.313 8.56261 187.774 9.29177 189.493 10.7501C191.224 12.2084 192.09 14.3308 192.09 17.1173C192.09 18.8881 191.609 20.4311 190.645 21.7462C189.695 23.0613 188.366 24.0443 186.661 24.6954L193.34 36.7656V37H189.317L183.145 25.4961ZM176.465 22.4297H182.227C184.089 22.4297 185.567 21.948 186.661 20.9844C187.767 20.0209 188.321 18.7318 188.321 17.1173C188.321 15.3595 187.794 14.0118 186.739 13.0743C185.697 12.1368 184.187 11.6616 182.208 11.6485H176.465V22.4297ZM213.067 29.5782H201.153L198.477 37H194.61L205.469 8.56261H208.75L219.629 37H215.782L213.067 29.5782ZM202.286 26.4922H211.954L207.11 13.1915L202.286 26.4922ZM227.227 33.9336H240.703V37H223.457V8.56261H227.227V33.9336Z" fill="white"/>
<path d="M78.5791 54.4648H71.419V62H69.169V44.9375H79.7393V46.7891H71.419V52.625H78.5791V54.4648ZM95.5596 54.0195C95.5596 55.6914 95.2783 57.1523 94.7158 58.4023C94.1533 59.6445 93.3565 60.5938 92.3252 61.25C91.294 61.9062 90.0908 62.2344 88.7158 62.2344C87.3721 62.2344 86.1807 61.9062 85.1416 61.25C84.1026 60.5859 83.294 59.6445 82.7158 58.4258C82.1455 57.1992 81.8526 55.7812 81.8369 54.1719V52.9414C81.8369 51.3008 82.1221 49.8516 82.6924 48.5938C83.2627 47.3359 84.0674 46.375 85.1065 45.7109C86.1533 45.0391 87.3486 44.7031 88.6924 44.7031C90.0596 44.7031 91.2627 45.0352 92.3018 45.6992C93.3486 46.3555 94.1533 47.3125 94.7158 48.5703C95.2783 49.8203 95.5596 51.2773 95.5596 52.9414V54.0195ZM93.3213 52.918C93.3213 50.8945 92.9151 49.3438 92.1026 48.2656C91.2901 47.1797 90.1533 46.6367 88.6924 46.6367C87.2705 46.6367 86.1494 47.1797 85.3291 48.2656C84.5166 49.3438 84.0986 50.8438 84.0752 52.7656V54.0195C84.0752 55.9805 84.4854 57.5234 85.3057 58.6484C86.1338 59.7656 87.2705 60.3242 88.7158 60.3242C90.169 60.3242 91.294 59.7969 92.0908 58.7422C92.8877 57.6797 93.2979 56.1602 93.3213 54.1836V52.918ZM112.06 54.0195C112.06 55.6914 111.778 57.1523 111.216 58.4023C110.653 59.6445 109.856 60.5938 108.825 61.25C107.794 61.9062 106.591 62.2344 105.216 62.2344C103.872 62.2344 102.681 61.9062 101.642 61.25C100.603 60.5859 99.794 59.6445 99.2158 58.4258C98.6455 57.1992 98.3526 55.7812 98.3369 54.1719V52.9414C98.3369 51.3008 98.6221 49.8516 99.1924 48.5938C99.7627 47.3359 100.567 46.375 101.606 45.7109C102.653 45.0391 103.849 44.7031 105.192 44.7031C106.56 44.7031 107.763 45.0352 108.802 45.6992C109.849 46.3555 110.653 47.3125 111.216 48.5703C111.778 49.8203 112.06 51.2773 112.06 52.9414V54.0195ZM109.821 52.918C109.821 50.8945 109.415 49.3438 108.603 48.2656C107.79 47.1797 106.653 46.6367 105.192 46.6367C103.771 46.6367 102.649 47.1797 101.829 48.2656C101.017 49.3438 100.599 50.8438 100.575 52.7656V54.0195C100.575 55.9805 100.985 57.5234 101.806 58.6484C102.634 59.7656 103.771 60.3242 105.216 60.3242C106.669 60.3242 107.794 59.7969 108.591 58.7422C109.388 57.6797 109.798 56.1602 109.821 54.1836V52.918ZM115.435 62V44.9375H120.251C121.735 44.9375 123.048 45.2656 124.188 45.9219C125.329 46.5781 126.208 47.5117 126.825 48.7227C127.45 49.9336 127.767 51.3242 127.774 52.8945V53.9844C127.774 55.5938 127.462 57.0039 126.837 58.2148C126.22 59.4258 125.333 60.3555 124.177 61.0039C123.028 61.6523 121.688 61.9844 120.157 62H115.435ZM117.685 46.7891V60.1602H120.052C121.786 60.1602 123.134 59.6211 124.095 58.543C125.063 57.4648 125.548 55.9297 125.548 53.9375V52.9414C125.548 51.0039 125.091 49.5 124.177 48.4297C123.271 47.3516 121.981 46.8047 120.31 46.7891H117.685ZM136.212 54.3945C134.282 53.8398 132.876 53.1602 131.993 52.3555C131.118 51.543 130.681 50.543 130.681 49.3555C130.681 48.0117 131.216 46.9023 132.286 46.0273C133.364 45.1445 134.763 44.7031 136.481 44.7031C137.653 44.7031 138.696 44.9297 139.61 45.3828C140.532 45.8359 141.243 46.4609 141.743 47.2578C142.251 48.0547 142.505 48.9258 142.505 49.8711H140.243C140.243 48.8398 139.915 48.0312 139.259 47.4453C138.603 46.8516 137.677 46.5547 136.481 46.5547C135.372 46.5547 134.505 46.8008 133.88 47.293C133.263 47.7773 132.954 48.4531 132.954 49.3203C132.954 50.0156 133.247 50.6055 133.833 51.0898C134.427 51.5664 135.431 52.0039 136.845 52.4023C138.267 52.8008 139.376 53.2422 140.173 53.7266C140.978 54.2031 141.571 54.7617 141.954 55.4023C142.345 56.043 142.54 56.7969 142.54 57.6641C142.54 59.0469 142.001 60.1562 140.923 60.9922C139.845 61.8203 138.403 62.2344 136.599 62.2344C135.427 62.2344 134.333 62.0117 133.317 61.5664C132.302 61.1133 131.517 60.4961 130.962 59.7148C130.415 58.9336 130.142 58.0469 130.142 57.0547H132.403C132.403 58.0859 132.782 58.9023 133.54 59.5039C134.306 60.0977 135.325 60.3945 136.599 60.3945C137.786 60.3945 138.696 60.1523 139.329 59.668C139.962 59.1836 140.278 58.5234 140.278 57.6875C140.278 56.8516 139.985 56.207 139.399 55.7539C138.813 55.293 137.751 54.8398 136.212 54.3945Z" fill="#F28724"/>
<defs>
<linearGradient id="paint0_linear" x1="-0.000217117" y1="36.0534" x2="57.0175" y2="36.0534" gradientUnits="userSpaceOnUse">
<stop stop-color="#599146"/>
<stop offset="0.940185" stop-color="#99CD55"/>
<stop offset="1" stop-color="#99CD55"/>
</linearGradient>
</defs>
</svg>
